<svg id="svg-source" height="0" version="1.1" 
  xmlns="http://www.w3.org/2000/svg" style="position:absolute; margin-left: -100%" 
  xmlns:xlink="http://www.w3.org/1999/xlink">
  <g id="close" data-iconmelon="Dripicons:a90a125aac36898af371263fa7677df1">
    <path d="M20.351,16L31.099,5.253c1.202-1.202,1.202-3.15,0-4.352c-1.201-1.202-3.15-1.202-4.351,0L16,11.649L5.252,0.901
	c-1.201-1.202-3.15-1.202-4.351,0c-1.202,1.202-1.202,3.15,0,4.352L11.649,16L0.901,26.748c-1.202,1.202-1.202,3.15,0,4.351
	C1.502,31.7,2.29,32,3.077,32c0.787,0,1.575-0.3,2.175-0.901L16,20.351l10.748,10.748C27.348,31.7,28.136,32,28.923,32
	c0.788,0,1.575-0.3,2.176-0.901c1.202-1.201,1.202-3.149,0-4.351L20.351,16z"></path>
  </g>
  <g id="menu" data-iconmelon="Dripicons:7a94fef4485136d7a7fa3ea7105f37b5">
    <g>
      <path d="M2.674,6.713h26.652C30.803,6.713,32,5.517,32,4.04s-1.197-2.674-2.674-2.674H2.674C1.197,1.366,0,2.563,0,4.04
		S1.197,6.713,2.674,6.713z"></path>
      <path d="M29.326,13.326H2.674C1.197,13.326,0,14.523,0,15.999c0,1.477,1.197,2.674,2.674,2.674h26.652
		c1.477,0,2.674-1.197,2.674-2.674C32,14.523,30.803,13.326,29.326,13.326z"></path>
      <path d="M29.326,25.287H2.674C1.197,25.287,0,26.483,0,27.96s1.197,2.674,2.674,2.674h26.652c1.477,0,2.674-1.197,2.674-2.674
		S30.803,25.287,29.326,25.287z"></path>
    </g>
  </g>
  <g id="edit" data-iconmelon="Dripicons:d3a7cc0e4c9e039ce7c7e74447a382a9">
    <g>
      <path d="M30.152,2.83L27.57,0.248C27.412,0.089,27.197,0,26.972,0l0,0c-0.225,0-0.439,0.089-0.598,0.248l-15.05,15.079
		c-0.082,0.082-0.146,0.179-0.188,0.286l-1.675,4.229c-0.124,0.313-0.05,0.669,0.187,0.908c0.162,0.163,0.378,0.249,0.6,0.249
		c0.103,0,0.208-0.019,0.308-0.058l4.243-1.661c0.108-0.043,0.208-0.107,0.29-0.189L30.152,4.025
		C30.482,3.695,30.482,3.16,30.152,2.83z M14.017,17.769l-2.268,0.888l0.895-2.26L26.973,2.042l1.386,1.386L14.017,17.769z"></path>
      <path d="M23.382,14.959c-0.747,0-1.353,0.606-1.353,1.353v12.982H4.306V4.973h13.592c0.747,0,1.353-0.606,1.353-1.353
		c0-0.747-0.606-1.353-1.353-1.353H2.953c-0.747,0-1.353,0.606-1.353,1.353v27.027C1.601,31.395,2.207,32,2.953,32h20.429
		c0.747,0,1.353-0.605,1.353-1.353V16.312C24.735,15.565,24.129,14.959,23.382,14.959z"></path>
    </g>
  </g>
</svg>